<svg viewBox="0 0 550 550" xmlns="http://www.w3.org/2000/svg" xmlns:xlink="http://www.w3.org/1999/xlink"><linearGradient x1="50%" y1="0%" x2="50%" y2="100%" id="grad-1"><stop stop-color="#6A8DFF" offset="0"></stop><stop stop-color="#002395" offset="1"></stop></linearGradient><linearGradient x1="50%" y1="0%" x2="50%" y2="100%" id="grad-2"><stop stop-color="#FFFFFF" offset="0"></stop><stop stop-color="#B6B6B6" offset="1"></stop></linearGradient><linearGradient x1="50%" y1="0%" x2="50%" y2="100%" id="grad-3"><stop stop-color="#FF9DA5" offset="0"></stop><stop stop-color="#ED2939" offset="1"></stop></linearGradient><g fill="none" fill-rule="evenodd"><path d="m163.330921 23.618294v502.763412c-96.2324177-42.812481-163.330921-139.261246-163.330921-251.381706s67.0985033-208.5692248 163.330921-251.381706z" fill="url(#grad-1)"/><path d="m275 0c39.628166 0 77.298595 8.38206508 111.335049 23.469956v503.060088c-34.036454 15.087891-71.706883 23.469956-111.335049 23.469956-39.887916 0-77.792348-8.492309-112.003876-23.76751v-502.4649802c34.211528-15.2752007 72.11596-23.7675098 112.003876-23.7675098z" fill="url(#grad-2)"/><path d="m386.003876 23.7675098c96.053211 42.8870656 162.996124 139.2421002 162.996124 251.2324902s-66.942913 208.345425-162.996124 251.23249z" fill="url(#grad-3)"/><path d="m275 0c144.009489 0 262.164935 110.694313 274.021645 251.638243-30.722909-7.628711-61.853641-11.442808-93.396767-11.442808-148.615601 0-177.805298 93.340576-311.231201 93.340576-42.996776 0-90.865469-12.560998-143.60607894-37.682993-.52493596-6.884383-.78759806-13.838026-.78759806-20.853018 0-151.878306 123.121694-275 275-275z"/><path d="m455.624878 240.195435c31.54284 0 62.673293 3.814028 93.391359 11.442085.653242 7.70136.983763 15.493321.983763 23.36248 0 151.878306-123.121694 275-275 275-144.862975 0-263.5645467-112.010282-274.2212371-254.147368 52.7500501 25.12254 100.6184101 37.683379 143.6149141 37.683379 133.425903 0 162.6156-93.340576 311.231201-93.340576z" fill="#fff" opacity=".2"/><g stroke="#fff" stroke-linecap="round" stroke-width="20"><path d="m106.154552 126.28059c-4.221177 4.788713-8.2418261 9.758415-12.0488132 14.895971" opacity=".8"/><path d="m192.540825 65.589933c-22.254684 8.7702438-42.774821 20.9855367-60.90338 35.988847" opacity=".8"/></g></g></svg>
