<svg viewBox="0 0 550 550" xmlns="http://www.w3.org/2000/svg" xmlns:xlink="http://www.w3.org/1999/xlink"><linearGradient id="a" x1="50%" x2="50%" y1="0%" y2="100%"><stop offset="0" stop-color="#ff6673"/><stop offset="1" stop-color="#b22234"/></linearGradient><linearGradient id="b"><stop offset="0" stop-color="#fff"/><stop offset="1" stop-color="#b6b6b6"/></linearGradient><linearGradient id="c" x1="50%" x2="50%" xlink:href="#b" y1="-5.908382%" y2="106.315494%"/><linearGradient id="d" x1="50%" x2="50%" y1="100%" y2="11.792097%"><stop offset="0" stop-color="#3c3b6e"/><stop offset="1" stop-color="#4f4dd2"/></linearGradient><linearGradient id="e" x1="50%" x2="50%" xlink:href="#b" y1="0%" y2="100%"/><g fill="none" fill-rule="evenodd"><circle cx="275" cy="275" fill="url(#a)" r="275"/><path d="m487.138139 450.004547c-23.84952 28.877124-53.481524 52.802226-87.122882 70.002173h-250.030514c-33.641358-17.199947-63.2733625-41.125049-87.1228821-70.002173zm60.655469-140.003516c-3.110234 24.484802-9.440069 47.964857-18.551773 70.002433h-508.4836701c-9.111704-22.037576-15.44153872-45.517631-18.55177331-70.002433zm-18.552387-140.00598c9.11191 22.037707 15.441911 45.517928 18.552261 70.00292h-545.58696357c3.11034971-24.484992 9.44035067-47.965213 18.55226047-70.00292zm-129.225964-140.0017714c33.641658 17.2001008 63.27389 41.1254752 87.123519 70.0029447h-424.2775523c23.849629-28.8774695 53.4818613-52.8028439 87.1235193-70.0029447z" fill="url(#c)"/><path d="m275 0v311l-272.66475944.000722c-1.54051478-11.781998-2.33524056-23.798551-2.33524056-36.000722 0-151.878306 123.121694-275 275-275z" fill="url(#d)"/><path d="m275 0c144.009489 0 262.164935 110.694313 274.021645 251.638243-30.722909-7.628711-61.853641-11.442808-93.396767-11.442808-148.615601 0-177.805298 93.340576-311.231201 93.340576-42.996776 0-90.865469-12.560998-143.60607894-37.682993-.52493596-6.884383-.78759806-13.838026-.78759806-20.853018 0-151.878306 123.121694-275 275-275z"/><path d="m455.624878 240.195435c31.54284 0 62.673293 3.814028 93.391359 11.442085.653242 7.70136.983763 15.493321.983763 23.36248 0 151.878306-123.121694 275-275 275-144.862975 0-263.5645467-112.010282-274.2212371-254.147368 52.7500501 25.12254 100.6184101 37.683379 143.6149141 37.683379 133.425903 0 162.6156-93.340576 311.231201-93.340576z" fill="#fff" opacity=".2"/><path d="m38 229 4.4083894 8.932373 9.8574583 1.432372-7.1329238 6.952882 1.6838549 9.817628-8.8167788-4.635255-8.8167788 4.635255 1.6838549-9.817628-7.1329238-6.952882 9.8574583-1.432372zm50 0 4.4083894 8.932373 9.8574586 1.432372-7.1329241 6.952882 1.6838549 9.817628-8.8167788-4.635255-8.8167788 4.635255 1.6838549-9.817628-7.1329238-6.952882 9.8574583-1.432372zm50 0 4.408389 8.932373 9.857459 1.432372-7.132924 6.952882 1.683855 9.817628-8.816779-4.635255-8.816779 4.635255 1.683855-9.817628-7.132924-6.952882 9.857459-1.432372zm50 0 4.408389 8.932373 9.857459 1.432372-7.132924 6.952882 1.683855 9.817628-8.816779-4.635255-8.816779 4.635255 1.683855-9.817628-7.132924-6.952882 9.857459-1.432372zm50 0 4.408389 8.932373 9.857459 1.432372-7.132924 6.952882 1.683855 9.817628-8.816779-4.635255-8.816779 4.635255 1.683855-9.817628-7.132924-6.952882 9.857459-1.432372zm-224.5724709-39.121655 3.9808603 8.054028 9.8574583 1.432372-7.1329238 6.952882 1.6838549 9.817628-8.8167788-4.635255-6.40430167 3.360873c1.89215827-8.481918 4.17609507-16.816087 6.83183077-24.982528zm49.5724709-.878345 4.4083894 8.932373 9.8574583 1.432372-7.1329238 6.952882 1.6838549 9.817628-8.8167788-4.635255-8.8167788 4.635255 1.6838549-9.817628-7.1329238-6.952882 9.8574583-1.432372zm50 0 4.408389 8.932373 9.857459 1.432372-7.132924 6.952882 1.683855 9.817628-8.816779-4.635255-8.816779 4.635255 1.683855-9.817628-7.1329237-6.952882 9.8574587-1.432372zm50 0 4.408389 8.932373 9.857459 1.432372-7.132924 6.952882 1.683855 9.817628-8.816779-4.635255-8.816779 4.635255 1.683855-9.817628-7.132924-6.952882 9.857459-1.432372zm50 0 4.408389 8.932373 9.857459 1.432372-7.132924 6.952882 1.683855 9.817628-8.816779-4.635255-8.816779 4.635255 1.683855-9.817628-7.132924-6.952882 9.857459-1.432372zm-25-40 4.408389 8.932373 9.857459 1.432372-7.132924 6.952882 1.683855 9.817628-8.816779-4.635255-8.816779 4.635255 1.683855-9.817628-7.132924-6.952882 9.857459-1.432372zm50 0 4.408389 8.932373 9.857459 1.432372-7.132924 6.952882 1.683855 9.817628-8.816779-4.635255-8.816779 4.635255 1.683855-9.817628-7.132924-6.952882 9.857459-1.432372zm-200 0 4.4083894 8.932373 9.8574583 1.432372-7.1329238 6.952882 1.6838549 9.817628-8.8167788-4.635255-8.8167788 4.635255 1.6838549-9.817628-5.9694205-5.818973c.2145896-.467957.430454-.935209.6475886-1.401749l8.0463664-1.164532zm100 0 4.408389 8.932373 9.857459 1.432372-7.132924 6.952882 1.683855 9.817628-8.816779-4.635255-8.816779 4.635255 1.683855-9.817628-7.132924-6.952882 9.857459-1.432372zm-50 0 4.4083894 8.932373 9.8574586 1.432372-7.1329241 6.952882 1.6838549 9.817628-8.8167788-4.635255-8.8167788 4.635255 1.6838549-9.817628-7.1329238-6.952882 9.8574583-1.432372zm25-40 4.408389 8.932373 9.857459 1.432372-7.132924 6.952882 1.683855 9.817628-8.816779-4.635255-8.816779 4.635255 1.683855-9.817628-7.1329237-6.952882 9.8574587-1.432372zm50 0 4.408389 8.932373 9.857459 1.432372-7.132924 6.952882 1.683855 9.817628-8.816779-4.635255-8.816779 4.635255 1.683855-9.817628-7.132924-6.952882 9.857459-1.432372zm-100 0 4.4083894 8.932373 9.8574583 1.432372-7.1329238 6.952882 1.6838549 9.817628-8.8167788-4.635255-8.8167788 4.635255 1.6838549-9.817628-7.1329238-6.952882 9.8574583-1.432372zm150 0 4.408389 8.932373 9.857459 1.432372-7.132924 6.952882 1.683855 9.817628-8.816779-4.635255-8.816779 4.635255 1.683855-9.817628-7.132924-6.952882 9.857459-1.432372zm-123.5196189-36.9985679 2.9280083 5.9309404 9.8574586 1.4323726-7.1329241 6.9528824 1.6838549 9.8176274-8.8167788-4.6352549-8.8167788 4.6352549 1.6838549-9.8176274-3.0654814-2.9889196c1.7513605-1.8015441 3.5271946-3.5791711 5.3269656-5.3323444l.4630503-.063991.3570399-.7315733c1.8198961-1.7581912 3.663989-3.4914963 5.5317306-5.1993671zm48.5196189-3.0014321 4.408389 8.9323725 9.857459 1.4323726-7.132924 6.9528824 1.683855 9.8176274-8.816779-4.6352549-8.816779 4.6352549 1.683855-9.8176274-7.132924-6.9528824 9.857459-1.4323726zm50 0 4.408389 8.9323725 9.857459 1.4323726-7.132924 6.9528824 1.683855 9.8176274-8.816779-4.6352549-8.816779 4.6352549 1.683855-9.8176274-7.132924-6.9528824 9.857459-1.4323726zm50 0 4.408389 8.9323725 9.857459 1.4323726-7.132924 6.9528824 1.683855 9.8176274-8.816779-4.6352549-8.816779 4.6352549 1.683855-9.8176274-7.132924-6.9528824 9.857459-1.4323726z" fill="url(#e)"/><g stroke="#fff" stroke-linecap="round" stroke-width="20"><path d="m192.540825 65.589933c-22.254684 8.7702438-42.774821 20.9855367-60.90338 35.988847" opacity=".8"/><path d="m106.154552 126.28059c-4.221177 4.788713-8.2418261 9.758415-12.0488132 14.895971" opacity=".8"/></g></g></svg>
