<svg viewBox="0 0 371 119" xmlns="http://www.w3.org/2000/svg"><g fill="none" fill-rule="evenodd" transform="matrix(-1 0 0 1 371 0)"><path d="m2.5 2.5c44.8476359 31.0318095 70.967275 50.0771535 78.3589172 57.1360321 11.0874634 10.5883179 30.7632448 57.1360319 48.3411258 57.1360319s49.152252-39.4069517 64.972076-39.4069517 40.460144 10.6348877 57.238709 10.6348877c16.778564 0 42.789585-27.1249161 52.168579-27.1249161 12.421793 0 34.061991 16.2083054 64.920593 48.6249161" stroke="#73bf69" stroke-linecap="square"/><g fill="#73bf69"><circle cx="80.5" cy="59.5" r="2.5"/><circle cx="2.5" cy="2.5" r="2.5"/><circle cx="128.5" cy="116.5" r="2.5"/><circle cx="194.5" cy="77.5" r="2.5"/><circle cx="251.5" cy="88.5" r="2.5"/><circle cx="303.5" cy="61.5" r="2.5"/><circle cx="368.5" cy="109.5" r="2.5"/></g></g></svg>
